HIERARCHY
ROOT Hips
{
	OFFSET 0.000000 100.481300 0.000000
	CHANNELS 6 Xposition Yposition Zposition Xrotation Yrotation Zrotation
	JOINT Spine
	{
		OFFSET -0.279200 12.230698 -2.892100
		CHANNELS 3 Xrotation Yrotation Zrotation
		JOINT Spine1
		{
			OFFSET -0.325700 14.269203 -3.374200
			CHANNELS 3 Xrotation Yrotation Zrotation
			JOINT Spine2
			{
				OFFSET -0.372300 16.307602 -0.352600
				CHANNELS 3 Xrotation Yrotation Zrotation
				JOINT Neck
				{
					OFFSET -0.418800 17.814194 8.416900
					CHANNELS 3 Xrotation Yrotation Zrotation
					JOINT Head
					{
						OFFSET 0.000000 7.031097 3.806800
						CHANNELS 3 Xrotation Yrotation Zrotation
						JOINT HeadTop_End
						{
							OFFSET 0.000000 24.646606 12.978600
							CHANNELS 3 Xrotation Yrotation Zrotation
							End Site
							{
								OFFSET 0.000000 27.854965 0.000000
							}
						}
					}
				}
				JOINT LeftShoulder
				{
					OFFSET 16.952999 14.495407 -7.737500
					CHANNELS 3 Xrotation Yrotation Zrotation
					JOINT LeftArm
					{
						OFFSET 9.308998 -2.777710 0.208600
						CHANNELS 3 Xrotation Yrotation Zrotation
						JOINT LeftForeArm
						{
							OFFSET 29.972298 0.000000 0.000000
							CHANNELS 3 Xrotation Yrotation Zrotation
							JOINT LeftHand
							{
								OFFSET 26.026505 0.000000 0.000000
								CHANNELS 3 Xrotation Yrotation Zrotation
								JOINT LeftHandThumb1
								{
									OFFSET 12.240501 -7.147949 9.207150
									CHANNELS 3 Xrotation Yrotation Zrotation
									JOINT LeftHandThumb2
									{
										OFFSET 4.138618 -2.389435 2.389433
										CHANNELS 3 Xrotation Yrotation Zrotation
										JOINT LeftHandThumb3
										{
											OFFSET 2.726913 -1.574387 1.574386
											CHANNELS 3 Xrotation Yrotation Zrotation
											JOINT LeftHandThumb4
											{
												OFFSET 3.941010 -2.275345 2.275342
												CHANNELS 3 Xrotation Yrotation Zrotation
												End Site
												{
													OFFSET -0.005798 5.087799 0.009903
												}
											}
										}
									}
								}
								JOINT LeftHandIndex1
								{
									OFFSET 24.424698 -1.985611 5.953459
									CHANNELS 3 Xrotation Yrotation Zrotation
									JOINT LeftHandIndex2
									{
										OFFSET 6.426697 0.000000 0.000000
										CHANNELS 3 Xrotation Yrotation Zrotation
										JOINT LeftHandIndex3
										{
											OFFSET 5.337898 0.000000 0.000000
											CHANNELS 3 Xrotation Yrotation Zrotation
											JOINT LeftHandIndex4
											{
												OFFSET 4.409401 0.000000 0.000000
												CHANNELS 3 Xrotation Yrotation Zrotation
												End Site
												{
													OFFSET 0.000000 4.409363 0.014373
												}
											}
										}
									}
								}
								JOINT LeftHandMiddle1
								{
									OFFSET 23.810104 0.000000 0.000000
									CHANNELS 3 Xrotation Yrotation Zrotation
									JOINT LeftHandMiddle2
									{
										OFFSET 7.176498 0.000000 0.000000
										CHANNELS 3 Xrotation Yrotation Zrotation
										JOINT LeftHandMiddle3
										{
											OFFSET 6.774902 0.000000 0.000000
											CHANNELS 3 Xrotation Yrotation Zrotation
											JOINT LeftHandMiddle4
											{
												OFFSET 5.403328 0.000000 0.000000
												CHANNELS 3 Xrotation Yrotation Zrotation
												End Site
												{
													OFFSET -0.027702 5.403244 0.017414
												}
											}
										}
									}
								}
								JOINT LeftHandRing1
								{
									OFFSET 22.908401 -0.839279 -6.020567
									CHANNELS 3 Xrotation Yrotation Zrotation
									JOINT LeftHandRing2
									{
										OFFSET 6.337502 0.000000 0.000000
										CHANNELS 3 Xrotation Yrotation Zrotation
										JOINT LeftHandRing3
										{
											OFFSET 5.779297 0.000000 0.000000
											CHANNELS 3 Xrotation Yrotation Zrotation
											JOINT LeftHandRing4
											{
												OFFSET 4.965698 0.000000 0.000000
												CHANNELS 3 Xrotation Yrotation Zrotation
												End Site
												{
													OFFSET 0.000000 4.965668 0.016186
												}
											}
										}
									}
								}
								JOINT LeftHandPinky1
								{
									OFFSET 20.037003 -1.530319 -10.950146
									CHANNELS 3 Xrotation Yrotation Zrotation
									JOINT LeftHandPinky2
									{
										OFFSET 5.254700 0.000000 0.000000
										CHANNELS 3 Xrotation Yrotation Zrotation
										JOINT LeftHandPinky3
										{
											OFFSET 4.810204 0.000000 0.000000
											CHANNELS 3 Xrotation Yrotation Zrotation
											JOINT LeftHandPinky4
											{
												OFFSET 3.647202 0.000000 0.000000
												CHANNELS 3 Xrotation Yrotation Zrotation
												End Site
												{
													OFFSET 0.000000 3.647186 0.011889
												}
											}
										}
									}
								}
							}
						}
					}
				}
				JOINT RightShoulder
				{
					OFFSET -15.141001 14.495407 -7.737500
					CHANNELS 3 Xrotation Yrotation Zrotation
					JOINT RightArm
					{
						OFFSET -9.308998 -2.777710 0.208500
						CHANNELS 3 Xrotation Yrotation Zrotation
						JOINT RightForeArm
						{
							OFFSET -29.972300 0.000000 0.000000
							CHANNELS 3 Xrotation Yrotation Zrotation
							JOINT RightHand
							{
								OFFSET -26.026505 0.000000 0.000000
								CHANNELS 3 Xrotation Yrotation Zrotation
								JOINT RightHandThumb1
								{
									OFFSET -12.240601 -7.148026 9.207092
									CHANNELS 3 Xrotation Yrotation Zrotation
									JOINT RightHandThumb2
									{
										OFFSET -4.138618 -2.389435 2.389433
										CHANNELS 3 Xrotation Yrotation Zrotation
										JOINT RightHandThumb3
										{
											OFFSET -2.726974 -1.574417 1.574421
											CHANNELS 3 Xrotation Yrotation Zrotation
											JOINT RightHandThumb4
											{
												OFFSET -3.941010 -2.275345 2.275343
												CHANNELS 3 Xrotation Yrotation Zrotation
												End Site
												{
													OFFSET 0.005814 5.087799 0.009927
												}
											}
										}
									}
								}
								JOINT RightHandIndex1
								{
									OFFSET -24.424698 -1.985657 5.953444
									CHANNELS 3 Xrotation Yrotation Zrotation
									JOINT RightHandIndex2
									{
										OFFSET -6.426697 0.000000 0.000000
										CHANNELS 3 Xrotation Yrotation Zrotation
										JOINT RightHandIndex3
										{
											OFFSET -5.337898 0.000000 0.000000
											CHANNELS 3 Xrotation Yrotation Zrotation
											JOINT RightHandIndex4
											{
												OFFSET -4.409401 0.000000 0.000000
												CHANNELS 3 Xrotation Yrotation Zrotation
												End Site
												{
													OFFSET 0.000000 4.409363 0.014408
												}
											}
										}
									}
								}
								JOINT RightHandMiddle1
								{
									OFFSET -23.810097 0.000000 0.000000
									CHANNELS 3 Xrotation Yrotation Zrotation
									JOINT RightHandMiddle2
									{
										OFFSET -7.176498 0.000000 0.000000
										CHANNELS 3 Xrotation Yrotation Zrotation
										JOINT RightHandMiddle3
										{
											OFFSET -6.774902 0.000000 0.000000
											CHANNELS 3 Xrotation Yrotation Zrotation
											JOINT RightHandMiddle4
											{
												OFFSET -5.403328 0.000000 0.000000
												CHANNELS 3 Xrotation Yrotation Zrotation
												End Site
												{
													OFFSET 0.027702 5.403244 0.017457
												}
											}
										}
									}
								}
								JOINT RightHandRing1
								{
									OFFSET -22.908302 -0.839325 -6.020576
									CHANNELS 3 Xrotation Yrotation Zrotation
									JOINT RightHandRing2
									{
										OFFSET -6.337502 0.000000 0.000000
										CHANNELS 3 Xrotation Yrotation Zrotation
										JOINT RightHandRing3
										{
											OFFSET -5.779297 0.000000 0.000000
											CHANNELS 3 Xrotation Yrotation Zrotation
											JOINT RightHandRing4
											{
												OFFSET -4.965698 0.000000 0.000000
												CHANNELS 3 Xrotation Yrotation Zrotation
												End Site
												{
													OFFSET 0.000000 4.965668 0.016226
												}
											}
										}
									}
								}
								JOINT RightHandPinky1
								{
									OFFSET -20.037003 -1.530334 -10.950259
									CHANNELS 3 Xrotation Yrotation Zrotation
									JOINT RightHandPinky2
									{
										OFFSET -5.254700 0.000000 0.000000
										CHANNELS 3 Xrotation Yrotation Zrotation
										JOINT RightHandPinky3
										{
											OFFSET -4.810204 0.000000 0.000000
											CHANNELS 3 Xrotation Yrotation Zrotation
											JOINT RightHandPinky4
											{
												OFFSET -3.647202 0.000000 0.000000
												CHANNELS 3 Xrotation Yrotation Zrotation
												End Site
												{
													OFFSET 0.000000 3.647186 0.011917
												}
											}
										}
									}
								}
							}
						}
					}
				}
			}
		}
	}
	JOINT LeftUpLeg
	{
		OFFSET 15.427100 -6.655098 0.678600
		CHANNELS 3 Xrotation Yrotation Zrotation
		JOINT LeftLeg
		{
			OFFSET 4.081073 -39.591068 13.024000
			CHANNELS 3 Xrotation Yrotation Zrotation
			JOINT LeftFoot
			{
				OFFSET -4.081074 -37.707932 -15.979700
				CHANNELS 3 Xrotation Yrotation Zrotation
				JOINT LeftToeBase
				{
					OFFSET 5.346399 -15.068900 20.645000
					CHANNELS 3 Xrotation Yrotation Zrotation
					JOINT LeftToe_End
					{
						OFFSET 2.754700 0.931300 11.300900
						CHANNELS 3 Xrotation Yrotation Zrotation
						End Site
						{
							OFFSET 0.000000 11.669021 0.000000
						}
					}
				}
			}
		}
	}
	JOINT RightUpLeg
	{
		OFFSET -15.569500 -6.655098 0.678600
		CHANNELS 3 Xrotation Yrotation Zrotation
		JOINT RightLeg
		{
			OFFSET -4.081825 -39.591045 13.023800
			CHANNELS 3 Xrotation Yrotation Zrotation
			JOINT RightFoot
			{
				OFFSET 4.081824 -37.707954 -15.979600
				CHANNELS 3 Xrotation Yrotation Zrotation
				JOINT RightToeBase
				{
					OFFSET -5.346400 -15.068900 20.645000
					CHANNELS 3 Xrotation Yrotation Zrotation
					JOINT RightToe_End
					{
						OFFSET -2.754700 0.931300 11.300900
						CHANNELS 3 Xrotation Yrotation Zrotation
						End Site
						{
							OFFSET 0.000000 11.669021 0.000000
						}
					}
				}
			}
		}
	}
}
MOTION
Frames: 6
Frame Time: 0.033333
0.082352 79.728287 -2.243633 -11.965154 -57.564793 -3.849019 7.612351 0.235782 -2.822975 14.049537 1.077366 -5.193885 14.049951 1.081227 -5.198693 4.201394 2.414674 -0.036363 -9.778845 39.636711 -4.456964 0.000000 0.000000 0.000000 -0.221978 -6.058919 4.775394 -19.262342 16.683507 -58.313655 0.000002 -124.074580 -0.000003 -5.444284 -5.844756 -3.630903 -2.186433 6.580941 9.932324 25.534328 36.281179 -24.986741 4.510172 20.503617 19.938642 0.000001 0.000001 -0.000003 20.553836 7.752388 -92.037585 7.464069 5.625085 -106.028783 5.003529 5.789554 -81.657015 0.000001 0.000003 0.000000 12.443783 7.198335 -99.571427 7.095328 5.717668 -102.298912 4.568079 5.709159 -77.312448 -0.000000 0.000001 0.000001 5.697524 8.247698 -95.530454 8.186845 5.366092 -113.565057 3.047310 5.137595 -61.325878 0.000000 0.000001 -0.000000 -3.706149 8.793980 -93.270481 7.173323 5.700217 -103.082683 6.928639 5.751316 -100.630693 0.000000 0.000001 0.000001 10.800158 26.717560 3.487246 -47.995012 38.304589 48.321266 0.000104 110.214029 -0.000083 -26.617575 16.387680 15.603547 -8.340368 -3.331773 -18.859998 26.228925 -37.891038 25.379192 5.807910 -26.481164 -20.901566 0.000002 0.000002 -0.000002 19.562638 -6.602384 91.550278 5.942353 -4.476694 106.036050 3.989502 -4.609170 81.748649 -0.000002 -0.000001 0.000001 11.166920 -5.988807 98.924177 5.661622 -4.547792 102.468574 3.635302 -4.543925 77.311594 -0.000002 0.000002 0.000003 4.271006 -6.984720 94.801933 6.540435 -4.260162 113.875653 2.447885 -4.100814 61.654526 0.000001 -0.000001 0.000001 -5.088145 -7.461076 92.847105 5.704828 -4.538074 103.013903 5.510417 -4.578497 100.568327 -0.000002 0.000000 -0.000004 -24.742128 13.353757 24.434170 38.179965 -6.600650 -1.442257 -4.024690 2.636366 -17.918223 -2.476099 0.000004 0.000011 -0.000000 0.000003 0.000000 -24.748717 0.911760 -23.111584 51.013945 4.819049 -6.458547 -17.631712 -4.522317 17.256743 -2.220134 -0.000009 -0.000005 -0.000000 0.000001 0.000000 
0.107467 79.813766 -1.796237 -11.955418 -57.599081 -3.835010 7.370874 0.423542 -2.804858 13.888837 1.193789 -5.218174 13.889167 1.196558 -5.221750 4.149147 2.465580 -0.155170 -9.468544 39.911111 -4.698336 0.000001 -0.000001 0.000000 -0.211437 -6.059309 4.875347 -19.743587 16.993815 -58.027102 -0.000023 -124.693573 -0.000031 -5.763072 -5.762558 -3.612232 -2.178572 6.635316 9.922432 25.609212 36.256700 -25.011459 4.547276 20.440164 19.914670 -0.000002 0.000000 -0.000002 20.653247 7.712662 -92.181367 7.465759 5.624600 -106.046050 5.005766 5.789884 -81.679316 -0.000002 0.000002 -0.000002 12.504756 7.173490 -99.718364 7.102724 5.716068 -102.373129 4.568093 5.709148 -77.312462 -0.000001 -0.000001 0.000001 5.695864 8.249094 -95.619261 8.195113 5.362511 -113.653426 3.054466 5.141479 -61.405620 0.000002 -0.000005 0.000001 -3.681801 8.830355 -93.487845 7.172608 5.700379 -103.075642 6.927942 5.751436 -100.623843 -0.000001 0.000002 0.000001 10.838882 26.772986 3.392621 -47.584258 38.268068 48.361158 0.000093 110.319071 -0.000095 -26.592915 16.297270 15.597306 -8.286649 -3.422109 -18.820692 26.209722 -37.898790 25.339112 5.834848 -26.481210 -20.850365 0.000002 -0.000000 0.000000 19.564616 -6.595363 91.576840 5.942344 -4.476693 106.036050 3.989499 -4.609173 81.748649 -0.000000 -0.000002 -0.000002 11.172047 -5.979861 99.003483 5.663042 -4.547481 102.486469 3.635302 -4.543923 77.311594 -0.000005 0.000000 0.000001 4.275568 -6.985137 94.857360 6.539812 -4.260452 113.867272 2.447895 -4.100811 61.654540 -0.000001 0.000001 0.000001 -5.066073 -7.476686 92.943124 5.704818 -4.538072 103.013924 5.510416 -4.578497 100.568341 -0.000002 -0.000003 -0.000001 -24.480148 13.403819 24.170844 38.351553 -6.457417 -1.527602 -4.440544 2.673561 -17.679190 -2.476095 -0.000016 0.000010 0.000000 0.000002 0.000000 -24.451712 0.833939 -23.364370 50.648066 4.968765 -6.630670 -17.576288 -4.587001 17.608236 -2.232362 -0.000007 -0.000005 0.000000 -0.000000 -0.000000 
0.129639 79.894485 -1.401523 -11.922238 -57.638539 -3.801320 7.153505 0.593552 -2.787523 13.743069 1.300090 -5.237805 13.743339 1.301812 -5.240257 4.102539 2.510948 -0.260000 -9.198984 40.154484 -4.907148 0.000003 -0.000000 0.000001 -0.200895 -6.059587 4.975164 -20.181739 17.240869 -57.768886 0.000028 -125.232119 0.000021 -6.052938 -5.652189 -3.606152 -2.170986 6.686485 9.913141 25.679665 36.233669 -25.034482 4.581882 20.380154 19.895207 0.000000 -0.000002 -0.000000 20.717431 7.701942 -92.215292 7.466831 5.624289 -106.057040 5.007260 5.790105 -81.694103 -0.000000 0.000001 0.000002 12.557178 7.159096 -99.773634 7.108250 5.714853 -102.428570 4.568092 5.709140 -77.312462 -0.000003 -0.000002 0.000000 5.688907 8.250122 -95.642900 8.201338 5.359786 -113.719965 3.059783 5.144367 -61.464961 0.000001 -0.000001 -0.000002 -3.669967 8.847922 -93.592873 7.170083 5.700965 -103.050158 6.925390 5.751924 -100.598359 0.000000 0.000001 -0.000000 10.875564 26.825249 3.303469 -47.212460 38.237472 48.397607 -0.000062 110.407269 0.000034 -26.557790 16.212209 15.592304 -8.236195 -3.507022 -18.783449 26.191590 -37.906054 25.301292 5.860247 -26.481233 -20.802183 0.000003 0.000000 -0.000000 19.566004 -6.590369 91.595863 5.942368 -4.476697 106.036057 3.989503 -4.609172 81.748649 -0.000004 0.000000 -0.000001 11.175714 -5.973427 99.060809 5.664203 -4.547226 102.501106 3.635299 -4.543924 77.311601 0.000001 0.000000 -0.000002 4.279167 -6.985474 94.901285 6.539221 -4.260702 113.859424 2.447895 -4.100811 61.654526 -0.000001 0.000000 -0.000002 -5.048752 -7.489465 93.021596 5.704822 -4.538072 103.013903 5.510418 -4.578509 100.568327 0.000002 -0.000002 -0.000001 -24.250401 13.448534 23.932049 38.488563 -6.320532 -1.599331 -4.801098 2.705804 -17.475722 -2.476096 -0.000023 -0.000004 0.000000 -0.000000 -0.000000 -24.204261 0.767492 -23.583023 50.312413 5.102464 -6.782052 -17.515426 -4.641511 17.915812 -2.248659 -0.000024 -0.000003 0.000000 -0.000000 0.000000 
0.148981 79.967903 -1.052992 -11.888293 -57.675162 -3.767923 6.960776 0.743163 -2.772044 13.613541 1.394033 -5.254940 13.613791 1.394817 -5.256321 4.060888 2.551119 -0.351842 -8.962097 40.369806 -5.092215 -0.000001 0.000000 -0.000000 -0.191216 -6.059455 5.067208 -20.571138 17.451956 -57.538477 0.000004 -125.703334 0.000000 -6.309835 -5.543982 -3.602562 -2.164309 6.732718 9.904727 25.743338 36.212847 -25.055224 4.612961 20.325572 19.880712 0.000002 0.000001 0.000000 20.769463 7.697331 -92.227115 7.467728 5.624035 -106.066151 5.008506 5.790287 -81.706336 -0.000000 -0.000001 0.000000 12.603062 7.147988 -99.806645 7.112902 5.713840 -102.475309 4.568104 5.709148 -77.312482 -0.000001 0.000006 0.000001 5.690011 8.250141 -95.653534 8.206596 5.357474 -113.776499 3.064293 5.146807 -61.515204 0.000001 0.000003 0.000002 -3.661469 8.860457 -93.668067 7.167553 5.701548 -103.024524 6.922801 5.752407 -100.572685 -0.000000 0.000002 0.000000 10.908436 26.872042 3.223782 -46.883255 38.212289 48.430064 0.000082 110.482743 -0.000098 -26.529396 16.134845 15.589425 -8.190576 -3.583649 -18.749622 26.175356 -37.912567 25.267419 5.883182 -26.481234 -20.758610 0.000004 -0.000002 -0.000002 19.567235 -6.586077 91.612207 5.942359 -4.476698 106.036023 3.989505 -4.609169 81.748649 -0.000001 0.000000 -0.000001 11.178814 -5.968021 99.108715 5.665186 -4.546991 102.513736 3.635303 -4.543926 77.311594 0.000001 0.000001 0.000003 4.282294 -6.985757 94.939220 6.539253 -4.260711 113.859438 2.447896 -4.100811 61.654519 -0.000003 0.000001 0.000001 -5.033555 -7.500489 93.089502 5.704830 -4.538068 103.013903 5.510416 -4.578501 100.568334 0.000000 0.000000 -0.000001 -24.046514 13.488242 23.718790 38.602969 -6.197671 -1.661317 -5.113478 2.733518 -17.298716 -2.476098 0.000022 -0.000001 0.000000 0.000003 0.000000 -23.987131 0.707955 -23.773814 50.009197 5.220445 -6.915273 -17.455812 -4.688860 18.186695 -2.266925 0.000002 -0.000000 0.000000 -0.000002 -0.000000 
0.165174 80.030655 -0.748647 -11.877924 -57.698870 -3.756720 6.796504 0.866181 -2.759689 13.503742 1.471929 -5.264536 13.504281 1.468850 -5.279816 4.023971 2.585807 -0.430356 -8.751204 40.557431 -5.262183 -0.000001 0.000000 -0.000001 -0.183386 -6.059697 5.141397 -20.899375 17.655414 -57.338297 -0.000003 -126.113993 0.000001 -6.525533 -5.474575 -3.600094 -2.163814 6.770996 9.900401 25.791028 36.191588 -25.067286 4.635948 20.279882 19.873117 -0.000001 -0.000001 0.000001 20.835758 7.671760 -92.317383 7.468244 5.623880 -106.071424 5.009960 5.790495 -81.720857 -0.000000 -0.000001 0.000001 12.644266 7.131453 -99.899576 7.117790 5.712755 -102.524425 4.568089 5.709160 -77.312482 -0.000001 -0.000003 0.000002 5.696054 8.250366 -95.712356 8.212165 5.355046 -113.836031 3.069081 5.149410 -61.568623 -0.000002 -0.000002 -0.000003 -3.645310 8.884270 -93.810954 7.167525 5.701553 -103.024511 6.922831 5.752400 -100.572691 0.000000 -0.000001 0.000000 10.935051 26.910397 3.159505 -46.607254 38.192792 48.457740 0.000012 110.548292 0.000003 -26.518092 16.071725 15.588023 -8.152372 -3.647911 -18.721291 26.161904 -37.917983 25.239368 5.902329 -26.481229 -20.722207 0.000003 -0.000003 -0.000002 19.568618 -6.581128 91.630997 5.942370 -4.476703 106.036030 3.989501 -4.609170 81.748642 -0.000001 0.000002 -0.000000 11.182148 -5.962163 99.160632 5.665441 -4.546936 102.516891 3.635302 -4.543928 77.311594 -0.000002 0.000003 0.000004 4.285384 -6.986039 94.976731 6.539238 -4.260704 113.859452 2.447905 -4.100808 61.654533 -0.000004 0.000000 -0.000001 -5.027809 -7.511253 93.152791 5.704822 -4.538070 103.013890 5.510422 -4.578505 100.568334 0.000001 0.000001 -0.000003 -23.864674 13.522665 23.535123 38.704906 -6.099343 -1.716740 -5.379814 2.756516 -17.139795 -2.476088 -0.000028 -0.000004 -0.000000 -0.000001 0.000000 -23.780197 0.650273 -23.940680 49.741532 5.320328 -7.030610 -17.406925 -4.731747 18.425393 -2.271536 0.000009 -0.000002 -0.000000 -0.000001 0.000000 
0.171932 80.060204 -0.596736 -11.879758 -57.703405 -3.761392 6.717081 0.920067 -2.749207 13.450183 1.505869 -5.264536 13.450861 1.500740 -5.289943 4.006678 2.597362 -0.467111 -8.641969 40.649803 -5.358503 0.000002 0.000000 0.000001 -0.179111 -6.059822 5.181916 -21.052368 17.772624 -57.243228 -0.000024 -126.308421 -0.000027 -6.626458 -5.439674 -3.602361 -2.163933 6.782367 9.902689 25.811799 36.178242 -25.066864 4.643281 20.259622 19.869374 0.000002 0.000003 0.000002 20.881096 7.647097 -92.406114 7.468236 5.623880 -106.071397 5.009968 5.790494 -81.720864 -0.000003 -0.000000 -0.000001 12.660711 7.120440 -99.979162 7.120628 5.712134 -102.552975 4.568086 5.709152 -77.312434 -0.000000 0.000003 0.000001 5.702162 8.250599 -95.771710 8.215516 5.353551 -113.872053 3.071966 5.150962 -61.600875 0.000001 -0.000000 0.000002 -3.632155 8.903561 -93.926829 7.167547 5.701554 -103.024511 6.922810 5.752402 -100.572671 0.000001 0.000001 0.000001 10.945427 26.926320 3.134341 -46.483098 38.190736 48.477449 -0.000051 110.572375 0.000041 -26.512472 16.051073 15.582245 -8.132068 -3.682062 -18.706193 26.159449 -37.918960 25.234243 5.907825 -26.481226 -20.711743 0.000004 -0.000002 -0.000001 19.569187 -6.579049 91.638763 5.942358 -4.476687 106.036057 3.989502 -4.609170 81.748642 0.000004 0.000001 -0.000002 11.184079 -5.958736 99.190958 5.665451 -4.546949 102.516857 3.635306 -4.543924 77.311594 -0.000002 -0.000001 -0.000001 4.286894 -6.986182 94.995241 6.539252 -4.260701 113.859438 2.447895 -4.100806 61.654547 0.000001 0.000001 -0.000003 -5.024830 -7.516823 93.185623 5.704813 -4.538057 103.013924 5.510409 -4.578499 100.568341 0.000001 -0.000003 0.000002 -23.777214 13.538016 23.447198 38.761354 -6.054575 -1.740123 -5.512437 2.766259 -17.060996 -2.476086 -0.000010 0.000002 -0.000000 0.000002 0.000000 -23.667618 0.616028 -24.022545 49.607521 5.367744 -7.085692 -17.387223 -4.751376 18.544220 -2.271536 0.000027 -0.000001 0.000000 -0.000000 -0.000000 
